<svg width="103" height="40" viewBox="0 0 103 40" fill="none" xmlns="http://www.w3.org/2000/svg">
<path d="M7.84045 8.19242H23.9045V12.6724H12.4805V17.6964H22.5925V22.1764H12.4805V27.2644H24.3525V31.7444H7.84045V8.19242Z" fill="#FF6565"/>
<path d="M36.289 8.19242C37.761 8.19242 39.073 8.38442 40.225 8.76842C41.377 9.13109 42.337 9.66442 43.105 10.3684C43.8943 11.0511 44.4916 11.8831 44.897 12.8644C45.3023 13.8244 45.505 14.9124 45.505 16.1284C45.505 17.0884 45.3556 18.0484 45.057 19.0084C44.7796 19.9684 44.3103 20.8431 43.649 21.6324C43.009 22.4218 42.1556 23.0618 41.089 23.5524C40.0223 24.0218 38.6996 24.2564 37.121 24.2564H33.793V31.7444H29.153V8.19242H36.289ZM37.089 19.7764C37.793 19.7764 38.3796 19.6591 38.849 19.4244C39.3183 19.1898 39.681 18.8911 39.937 18.5284C40.2143 18.1658 40.4063 17.7924 40.513 17.4084C40.641 17.0031 40.705 16.6298 40.705 16.2884C40.705 16.0324 40.6623 15.7124 40.577 15.3284C40.513 14.9231 40.3636 14.5178 40.129 14.1124C39.8943 13.7071 39.5316 13.3658 39.041 13.0884C38.5716 12.8111 37.9316 12.6724 37.121 12.6724H33.793V19.7764H37.089ZM41.441 22.6564L47.265 31.7444H41.857L35.905 22.7844L41.441 22.6564Z" fill="#FF6565"/>
<path d="M51.0905 31.7444V7.23242H51.1225L64.2105 25.7924L62.2265 25.3444L75.2825 7.23242H75.3465V31.7444H70.7065V17.6964L70.9945 20.0964L63.0265 31.4244H62.9625L54.7705 20.0964L55.5705 17.8884V31.7444H51.0905Z" fill="#FF6565"/>
<path d="M94.0102 13.8884C93.1142 13.3978 92.1969 12.9924 91.2582 12.6724C90.3409 12.3524 89.4769 12.1924 88.6662 12.1924C87.6635 12.1924 86.8742 12.3951 86.2982 12.8004C85.7222 13.2058 85.4342 13.8138 85.4342 14.6244C85.4342 15.1791 85.6475 15.6804 86.0742 16.1284C86.5222 16.5551 87.0875 16.9391 87.7702 17.2804C88.4742 17.6218 89.1995 17.9311 89.9462 18.2084C90.6289 18.4644 91.3009 18.7738 91.9622 19.1364C92.6449 19.4778 93.2529 19.9151 93.7862 20.4484C94.3195 20.9604 94.7462 21.6111 95.0662 22.4004C95.3862 23.1684 95.5462 24.1178 95.5462 25.2484C95.5462 26.4431 95.2369 27.5524 94.6182 28.5764C93.9995 29.6004 93.0929 30.4324 91.8982 31.0724C90.7035 31.6911 89.2315 32.0004 87.4822 32.0004C86.5862 32.0004 85.6689 31.9151 84.7302 31.7444C83.8129 31.5524 82.9062 31.2751 82.0102 30.9124C81.1142 30.5284 80.2502 30.0484 79.4182 29.4724L81.4662 25.8564C82.0209 26.2618 82.6182 26.6244 83.2582 26.9444C83.9195 27.2431 84.5809 27.4778 85.2422 27.6484C85.9035 27.8191 86.5115 27.9044 87.0662 27.9044C87.6209 27.9044 88.1755 27.8298 88.7302 27.6804C89.3062 27.5098 89.7755 27.2324 90.1382 26.8484C90.5222 26.4644 90.7142 25.9311 90.7142 25.2484C90.7142 24.7791 90.5542 24.3524 90.2342 23.9684C89.9355 23.5844 89.5195 23.2324 88.9862 22.9124C88.4742 22.5924 87.9089 22.3151 87.2902 22.0804C86.5649 21.8031 85.8182 21.4831 85.0502 21.1204C84.2822 20.7578 83.5569 20.3204 82.8742 19.8084C82.2129 19.2751 81.6689 18.6244 81.2422 17.8564C80.8369 17.0671 80.6342 16.1071 80.6342 14.9764C80.6342 13.6111 80.9329 12.4271 81.5302 11.4244C82.1489 10.4218 83.0129 9.63242 84.1222 9.05642C85.2315 8.45909 86.5115 8.12842 87.9622 8.06442C89.8609 8.06442 91.3969 8.28842 92.5702 8.73642C93.7649 9.18442 94.8315 9.71776 95.7702 10.3364L94.0102 13.8884Z" fill="#FF6565"/>
<line x1="1.5" y1="2.10059" x2="1.5" y2="32" stroke="#234B59" stroke-width="3"/>
<line y1="1.52246" x2="51.0468" y2="1.52246" stroke="#234B59" stroke-width="3"/>
<line x1="101.398" y1="37.0547" x2="101.398" y2="7.23145" stroke="#234B59" stroke-width="3"/>
<line x1="102.898" y1="37.6328" x2="51.0468" y2="37.6328" stroke="#234B59" stroke-width="3"/>
</svg>
