<svg width="231" height="100" viewBox="0 0 231 100" fill="none" xmlns="http://www.w3.org/2000/svg">
<path d="M110.465 19.4243H120.043V23.5823C122.28 23.8595 124.409 24.3307 126.428 24.996C128.447 25.6058 130.139 26.382 131.503 27.3244V41.0457C129.375 39.7706 127.274 38.6618 125.2 37.7194C123.126 36.7769 120.67 36.3056 117.833 36.3056C116.195 36.3056 114.777 36.5551 113.576 37.0541C112.375 37.553 111.775 38.3846 111.775 39.5489C111.775 40.7685 112.484 41.711 113.903 42.3763C115.377 43.0416 117.151 43.7623 119.224 44.5384L124.545 46.6174C128.202 48.0034 130.767 49.9161 132.24 52.3554C133.768 54.7393 134.532 57.1509 134.532 59.5902C134.532 63.5265 133.168 66.936 130.439 69.8188C127.71 72.6463 124.245 74.5312 120.043 75.4737V81.2948H110.465V75.9726C108.064 75.64 105.717 75.0024 103.425 74.06C101.133 73.1175 99.114 72.0087 97.3677 70.7336V57.0123C99.7689 58.8418 102.334 60.3387 105.063 61.5029C107.791 62.6671 110.547 63.2493 113.33 63.2493C115.077 63.2493 116.468 63.0275 117.505 62.584C118.597 62.1405 119.142 61.392 119.142 60.3387C119.142 59.5625 118.733 58.8973 117.915 58.3429C117.151 57.7885 116.086 57.3172 114.722 56.9291L107.682 54.6838C104.899 53.7414 102.743 52.5217 101.215 51.0248C99.687 49.4725 98.6228 47.7262 98.0225 45.7858C97.4222 43.8454 97.1221 41.8496 97.1221 39.7983C97.1221 35.4741 98.4045 31.9814 100.969 29.3203C103.589 26.6592 106.754 24.8851 110.465 23.9981V19.4243Z" fill="#FF6565"/>
<path fill-rule="evenodd" clip-rule="evenodd" d="M115.468 92.8058C137.281 92.8058 155.284 76.4895 157.937 55.3957H165.18C162.489 80.4723 141.259 100 115.468 100C92.2021 100 72.648 84.1098 67.0662 62.5903H55.8302L43.7896 72.943L33.8221 53.9395L19.1468 62.5903H0V55.396H17.1842L36.6815 43.9028L45.9586 61.5901L53.1626 55.396H65.7554L65.7554 55.3957H72.9987C75.6517 76.4895 93.6542 92.8058 115.468 92.8058ZM115.468 7.19424C93.3822 7.19424 75.2033 23.92 72.9066 45.3957H65.6768C68.0009 19.9397 89.4057 0 115.468 0C140.138 0 160.635 17.8669 164.725 41.3668H175.105L186.061 31.9466L197.017 41.3668L204.317 41.3668V25.3384L230.216 44.9641L204.317 64.5899V48.561L194.35 48.561L186.061 41.4344L177.773 48.561L158.273 48.561V45.3957H158.029C155.732 23.92 137.553 7.19424 115.468 7.19424Z" fill="#FF6565"/>
<path fill-rule="evenodd" clip-rule="evenodd" d="M111.184 83.7193C94.4358 81.613 81.4811 67.3195 81.4811 50.0003C81.4811 32.6811 94.4358 18.3876 111.184 16.2812L111.184 10.5303C91.2735 12.6665 75.7691 29.5228 75.7691 50.0003C75.7691 70.4778 91.2735 87.334 111.184 89.4703L111.184 83.7193ZM121.184 16.4925C137.232 19.2104 149.454 33.1781 149.454 50.0003C149.454 66.8225 137.232 80.7901 121.184 83.5081L121.184 89.2903C140.4 86.5191 155.166 69.9841 155.166 50.0003C155.166 30.0165 140.4 13.4815 121.184 10.7103L121.184 16.4925Z" fill="#FF6565"/>
</svg>
