<svg width="230" height="114" viewBox="0 0 230 114" fill="none" xmlns="http://www.w3.org/2000/svg">
<path d="M135.337 18.7711L113.753 35.0273L113.753 2.51485L135.337 18.7711Z" fill="#FF6565"/>
<path fill-rule="evenodd" clip-rule="evenodd" d="M192.915 79.707L206.394 57.7911L215.183 66.5166H230V59.0448H217.971L204.127 46.0002L189.927 69.2831L175.854 59.0448H159V65.9146H173.803L192.915 79.707Z" fill="#FF6565"/>
<path fill-rule="evenodd" clip-rule="evenodd" d="M35.1767 52L48.6555 71.4082L56.1834 63.9366H71V71.4084H58.9709L46.3889 83.1991L32.1887 62.4239L16.8537 71.4084H0V64.5385H14.8028L35.1767 52Z" fill="#FF6565"/>
<path d="M91.536 40C93.3853 40 95.025 40.3063 96.4551 40.919C97.9098 41.5072 99.0441 42.3404 99.8578 43.4187C100.671 44.4725 101.078 45.6978 101.078 47.0947C101.078 48.7366 100.61 50.0478 99.6728 51.028C98.7359 51.9838 97.6016 52.5597 96.2701 52.7557C97.6016 53.0008 98.7359 53.5645 99.6728 54.4467C100.61 55.329 101.078 56.6033 101.078 58.2698C101.078 59.7647 100.634 61.0758 99.7468 62.2031C98.8591 63.3059 97.6756 64.1759 96.1962 64.8131C94.7167 65.4257 93.1017 65.7321 91.351 65.7321C90.1428 65.7321 88.9593 65.5728 87.8004 65.2542C86.6662 64.9356 85.7539 64.519 85.0635 64.0043V58.0124C85.9018 58.5516 86.7278 58.9682 87.5415 59.2623C88.3799 59.5319 89.2552 59.6666 90.1675 59.6666C91.2278 59.6666 92.1277 59.4706 92.8675 59.0785C93.6072 58.6619 93.977 58.0002 93.977 57.0934C93.977 56.5298 93.7921 56.1132 93.4222 55.8436C93.0524 55.5495 92.5592 55.3657 91.9428 55.2922C91.351 55.1942 90.7223 55.1452 90.0565 55.1452H88.2073V50.1458H90.0565C90.7223 50.1458 91.351 50.1458 91.9428 50.1458C92.5592 50.1458 93.0524 50.0478 93.4222 49.8517C93.7921 49.6311 93.977 49.2268 93.977 48.6386C93.977 47.7319 93.5825 47.0824 92.7935 46.6903C92.0045 46.2737 91.1291 46.0654 90.1675 46.0654C88.4908 46.0654 86.9744 46.7026 85.6183 47.9769V42.0586C86.2593 41.4704 87.0607 40.9803 88.0223 40.5882C89.0086 40.1961 90.1798 40 91.536 40Z" fill="#FF6565"/>
<path d="M121.679 40.5514C120.2 41.9728 118.782 43.3697 117.426 44.742C116.094 46.0899 114.973 47.5358 114.06 49.0797C114.603 48.7366 115.096 48.5283 115.54 48.4548C115.984 48.3568 116.427 48.3078 116.871 48.3078C118.252 48.3078 119.546 48.6386 120.755 49.3003C121.963 49.962 122.937 50.9055 123.677 52.1308C124.441 53.3562 124.823 54.8021 124.823 56.4685C124.823 58.331 124.379 59.9607 123.492 61.3576C122.629 62.7545 121.457 63.8328 119.978 64.5925C118.523 65.3522 116.92 65.7321 115.17 65.7321C113.518 65.7321 111.952 65.3522 110.473 64.5925C109.018 63.8083 107.822 62.7177 106.885 61.3208C105.973 59.8995 105.517 58.2207 105.517 56.2847C105.517 54.6428 105.788 53.0376 106.33 51.4691C106.873 49.9007 107.563 48.4303 108.401 47.0579C109.264 45.6611 110.164 44.4112 111.101 43.3084C112.038 42.2056 112.889 41.2866 113.653 40.5514H121.679ZM115.17 54.1526C114.381 54.1526 113.752 54.4345 113.284 54.9981C112.84 55.5373 112.618 56.1744 112.618 56.9096C112.618 57.6448 112.84 58.2943 113.284 58.8579C113.752 59.3971 114.381 59.6666 115.17 59.6666C115.959 59.6666 116.575 59.3971 117.019 58.8579C117.488 58.2943 117.722 57.6448 117.722 56.9096C117.722 56.1744 117.488 55.5373 117.019 54.9981C116.575 54.4345 115.959 54.1526 115.17 54.1526Z" fill="#FF6565"/>
<path d="M144.167 40.5514V46.6168H135.919V50.4399C136.412 50.2438 137.004 50.0845 137.694 49.962C138.385 49.8394 139.013 49.7782 139.58 49.7782C140.715 49.7782 141.775 50.0478 142.761 50.5869C143.747 51.1015 144.549 51.8613 145.165 52.866C145.806 53.8708 146.127 55.0961 146.127 56.542C146.127 58.6741 145.658 60.4263 144.721 61.7987C143.809 63.1466 142.601 64.1391 141.097 64.7763C139.593 65.4135 137.965 65.7321 136.215 65.7321C134.933 65.7321 133.835 65.6095 132.923 65.3645C132.011 65.1439 131.246 64.8621 130.63 64.519C130.013 64.1759 129.483 63.8573 129.039 63.5632V58.086C130.124 58.6006 131.086 58.9927 131.924 59.2623C132.787 59.5319 133.761 59.6666 134.846 59.6666C136.153 59.6666 137.176 59.5196 137.916 59.2255C138.656 58.9314 139.026 58.331 139.026 57.4243C139.026 56.6646 138.68 56.0396 137.99 55.5495C137.3 55.0594 136.313 54.8143 135.031 54.8143C134.094 54.8143 133.231 54.8878 132.442 55.0349C131.678 55.1819 130.95 55.3535 130.26 55.5495V40.5514H144.167Z" fill="#FF6565"/>
<path d="M91.2075 71.4897C92.8823 71.4897 94.3981 71.8227 95.7547 72.4885C97.1113 73.1544 98.1915 74.1198 98.9955 75.3849C99.7994 76.65 100.201 78.1815 100.201 79.9792C100.201 81.2111 99.992 82.3763 99.5733 83.4749C99.1713 84.5569 98.5935 85.5141 97.8398 86.3464C97.0862 87.1787 96.1818 87.8279 95.1266 88.294C94.0715 88.76 92.8907 88.9931 91.5844 88.9931C90.8139 88.9931 89.9933 88.9598 89.1224 88.8932C88.2682 88.8433 87.4308 88.76 86.6101 88.6435C85.7895 88.5436 85.0358 88.4271 84.3491 88.294V72.1889C85.421 72.0058 86.5515 71.8476 87.7406 71.7145C88.9465 71.5647 90.1021 71.4897 91.2075 71.4897ZM91.3583 75.8593C90.9731 75.8593 90.5711 75.8926 90.1524 75.9592C89.7504 76.0092 89.382 76.0757 89.047 76.159V84.3239C89.4322 84.4404 89.8258 84.5236 90.2278 84.5736C90.6297 84.6069 91.0065 84.6235 91.3583 84.6235C92.2124 84.6235 92.9326 84.4321 93.5188 84.0492C94.1217 83.6497 94.5823 83.117 94.9005 82.4512C95.2187 81.7853 95.3778 81.0446 95.3778 80.2289C95.3778 78.9305 95.0261 77.8818 94.3227 77.0828C93.636 76.2672 92.6479 75.8593 91.3583 75.8593Z" fill="#FF6565"/>
<path d="M109.848 71.6396L117.636 88.6186H112.16L111.331 86.3713H106.005L105.176 88.6186H99.6989L107.487 71.6396H109.848ZM108.668 79.1802L107.386 82.626H109.949L108.668 79.1802Z" fill="#FF6565"/>
<path d="M132.986 71.8893L126.404 82.8507V88.6186H121.706V82.8507L115.124 71.8893H120.601L124.068 78.0816L127.509 71.8893H132.986Z" fill="#FF6565"/>
<path d="M140.598 71.5147C141.586 71.5147 142.558 71.6396 143.512 71.8893C144.484 72.1223 145.262 72.4386 145.849 72.8381V77.3575C145.128 76.9413 144.417 76.5834 143.713 76.2838C143.01 75.9675 142.181 75.8094 141.226 75.8094C140.673 75.8094 140.196 75.8926 139.794 76.0591C139.392 76.2256 139.191 76.5002 139.191 76.8831C139.191 77.2992 139.434 77.6155 139.92 77.8319C140.405 78.0317 141 78.2647 141.703 78.531L143.512 79.2052C144.735 79.6713 145.597 80.3038 146.1 81.1029C146.619 81.9019 146.879 82.7009 146.879 83.4999C146.879 84.5652 146.569 85.5141 145.949 86.3464C145.329 87.162 144.492 87.8112 143.437 88.294C142.382 88.76 141.201 88.9931 139.895 88.9931C138.89 88.9931 137.893 88.8183 136.905 88.4687C135.917 88.1192 135.054 87.6864 134.317 87.1703V82.6509C135.121 83.2502 135.984 83.7413 136.905 84.1241C137.843 84.507 138.781 84.6984 139.719 84.6984C140.305 84.6984 140.774 84.6318 141.126 84.4987C141.494 84.3488 141.678 84.0991 141.678 83.7496C141.678 83.4999 141.544 83.2835 141.276 83.1004C141.008 82.9173 140.648 82.7591 140.196 82.626L137.81 81.8769C136.872 81.5773 136.143 81.1694 135.624 80.6534C135.105 80.1374 134.745 79.5631 134.544 78.9305C134.343 78.2813 134.242 77.6238 134.242 76.958C134.242 75.7761 134.544 74.7857 135.147 73.9867C135.749 73.171 136.537 72.5551 137.508 72.1389C138.479 71.7228 139.509 71.5147 140.598 71.5147Z" fill="#FF6565"/>
<mask id="path-6-inside-1_43_2537" fill="white">
<path d="M115.614 14C103.692 14 92.158 18.2078 83.0675 25.8733C73.977 33.5388 67.9209 44.1639 65.9787 55.8543C64.0366 67.5447 66.3346 79.5407 72.4631 89.7039C78.5917 99.8671 88.1524 107.537 99.4411 111.346C110.73 115.155 123.012 114.856 134.1 110.502C145.187 106.148 154.359 98.0217 159.979 87.5724C165.599 77.1231 167.303 65.0296 164.787 53.4477C162.271 41.8659 155.699 31.5485 146.241 24.3347L141.647 30.2845C149.686 36.4162 155.273 45.186 157.411 55.0306C159.55 64.8751 158.101 75.1546 153.324 84.0365C148.547 92.9184 140.751 99.8255 131.327 103.526C121.903 107.227 111.462 107.482 101.867 104.244C92.2716 101.006 84.1449 94.487 78.9357 85.8483C73.7264 77.2096 71.7731 67.013 73.4239 57.0761C75.0748 47.1393 80.2225 38.108 87.9494 31.5923C95.6764 25.0766 105.48 21.5 115.614 21.5L115.614 14Z"/>
</mask>
<path d="M115.614 14C103.692 14 92.158 18.2078 83.0675 25.8733C73.977 33.5388 67.9209 44.1639 65.9787 55.8543C64.0366 67.5447 66.3346 79.5407 72.4631 89.7039C78.5917 99.8671 88.1524 107.537 99.4411 111.346C110.73 115.155 123.012 114.856 134.1 110.502C145.187 106.148 154.359 98.0217 159.979 87.5724C165.599 77.1231 167.303 65.0296 164.787 53.4477C162.271 41.8659 155.699 31.5485 146.241 24.3347L141.647 30.2845C149.686 36.4162 155.273 45.186 157.411 55.0306C159.55 64.8751 158.101 75.1546 153.324 84.0365C148.547 92.9184 140.751 99.8255 131.327 103.526C121.903 107.227 111.462 107.482 101.867 104.244C92.2716 101.006 84.1449 94.487 78.9357 85.8483C73.7264 77.2096 71.7731 67.013 73.4239 57.0761C75.0748 47.1393 80.2225 38.108 87.9494 31.5923C95.6764 25.0766 105.48 21.5 115.614 21.5L115.614 14Z" stroke="#FF6565" stroke-width="14" mask="url(#path-6-inside-1_43_2537)"/>
</svg>
