<svg width="230" height="100" viewBox="0 0 230 100" fill="none" xmlns="http://www.w3.org/2000/svg">
<path d="M230 41.6619L203.588 61.2876L203.588 22.0361L230 41.6619Z" fill="#FF6565"/>
<line x1="86.1245" y1="26.5" x2="136.194" y2="26.5" stroke="#FF6565" stroke-width="5" stroke-linecap="round"/>
<line x1="86.1245" y1="41.5" x2="136.194" y2="41.5" stroke="#FF6565" stroke-width="5" stroke-linecap="round"/>
<line x1="86.1245" y1="56.5" x2="136.194" y2="56.5" stroke="#FF6565" stroke-width="5" stroke-linecap="round"/>
<line x1="86.1245" y1="71.5" x2="136.194" y2="71.5" stroke="#FF6565" stroke-width="5" stroke-linecap="round"/>
<path fill-rule="evenodd" clip-rule="evenodd" d="M63.4403 70.6128L53.933 52.4856L47.1839 58.0005L34.4805 58.0005L27.5351 44.0011L20.5897 58.0005L0.000258882 58.0005L0.000259506 51.0005L16.124 51.0005L27.5351 27.9999L38.9463 51.0005L44.5994 51.0005L56.2069 41.5156L65.0562 58.3883L70.7735 52.1591L76.0796 56.8419L63.4403 70.6128Z" fill="#FF6565"/>
<path fill-rule="evenodd" clip-rule="evenodd" d="M187.645 55.3188L178.887 45.5038H171.063L166.229 35.0075L161.395 45.5038H144.813V38.5038H156.786L166.229 18.0001L175.672 38.5038H182.126L187.645 44.6887L193.164 38.5038H205.492V45.5038H196.403L187.645 55.3188Z" fill="#FF6565"/>
<path fill-rule="evenodd" clip-rule="evenodd" d="M77.3667 45V7H144.951V45H151.951V5C151.951 2.23858 149.713 0 146.951 0H75.3667C72.6053 0 70.3667 2.23858 70.3667 5V45H77.3667ZM77.3667 52H70.3667V95C70.3667 97.7614 72.6053 100 75.3667 100H146.951C149.713 100 151.951 97.7614 151.951 95V52H144.951V93H77.3667V52Z" fill="#FF6565"/>
</svg>
